<svg width="29" height="28" viewBox="0 0 29 28" fill="none" xmlns="http://www.w3.org/2000/svg">
<g id="Group 42">
<path id="Vector" d="M14.8746 0C11.1624 0 7.59901 1.47591 4.9762 4.10047C2.35068 6.72607 0.875361 10.2869 0.874634 14C0.874634 17.7115 2.3512 21.275 4.9762 23.8995C7.59901 26.5241 11.1624 28 14.8746 28C18.5868 28 22.1503 26.5241 24.7731 23.8995C27.3981 21.275 28.8746 17.7115 28.8746 14C28.8746 10.2885 27.3981 6.72503 24.7731 4.10047C22.1503 1.47591 18.5868 0 14.8746 0Z" fill="url(#paint0_linear_33_164)"/>
<path id="Vector_2" d="M7.21187 13.8521C11.2937 12.0741 14.015 10.9018 15.3756 10.3355C19.265 8.71827 20.0722 8.43739 20.5994 8.42788C20.7153 8.42602 20.9734 8.45467 21.1419 8.59085C21.2819 8.70569 21.3212 8.861 21.3409 8.97005C21.3584 9.07899 21.3825 9.32727 21.3628 9.52108C21.1528 11.7348 20.2406 17.1069 19.7769 19.5864C19.5822 20.6356 19.195 20.9873 18.8209 21.0216C18.0072 21.0965 17.3903 20.4844 16.6028 19.9684C15.3712 19.1605 14.6756 18.6578 13.4791 17.8697C12.0966 16.9588 12.9934 16.4581 13.7809 15.64C13.9866 15.4258 17.5697 12.1675 17.6375 11.872C17.6462 11.835 17.655 11.6972 17.5719 11.6246C17.4909 11.5517 17.3706 11.5767 17.2831 11.5964C17.1584 11.6244 15.1919 12.9255 11.3769 15.4995C10.8191 15.8832 10.3137 16.0702 9.85874 16.0604C9.35999 16.0497 8.39749 15.7778 7.68218 15.5455C6.80718 15.2604 6.10937 15.1097 6.17062 14.6256C6.20124 14.3736 6.54905 14.1157 7.21187 13.8521Z" fill="white"/>
</g>
<defs>
<linearGradient id="paint0_linear_33_164" x1="1400.87" y1="0" x2="1400.87" y2="2800" gradientUnits="userSpaceOnUse">
<stop stop-color="#2AABEE"/>
<stop offset="1" stop-color="#229ED9"/>
</linearGradient>
</defs>
</svg>
